solid CATIA STL
  facet normal -5.555698e-001  8.314700e-001  0.000000e+000
    outer loop
      vertex  7.071068e+000 -1.570711e+002  6.000000e+001
      vertex  3.826834e+000 -1.592388e+002  2.000000e+001
      vertex  3.826834e+000 -1.592388e+002  6.000000e+001
    endloop
  endfacet
  facet normal -1.950891e-001  9.807855e-001  0.000000e+000
    outer loop
      vertex  3.826834e+000 -1.592388e+002  6.000000e+001
      vertex  3.826834e+000 -1.592388e+002  2.000000e+001
      vertex  3.276838e-015 -1.600000e+002  2.000000e+001
    endloop
  endfacet
  facet normal -1.950891e-001  9.807855e-001  0.000000e+000
    outer loop
      vertex  3.826834e+000 -1.592388e+002  6.000000e+001
      vertex  3.276838e-015 -1.600000e+002  2.000000e+001
      vertex  3.276838e-015 -1.600000e+002  6.000000e+001
    endloop
  endfacet
  facet normal -5.555698e-001  8.314700e-001  0.000000e+000
    outer loop
      vertex  3.826834e+000 -1.592388e+002  2.000000e+001
      vertex  7.071068e+000 -1.570711e+002  6.000000e+001
      vertex  7.071068e+000 -1.570711e+002  2.000000e+001
    endloop
  endfacet
  facet normal -8.314707e-001  5.555685e-001  0.000000e+000
    outer loop
      vertex  7.071068e+000 -1.570711e+002  2.000000e+001
      vertex  7.071068e+000 -1.570711e+002  6.000000e+001
      vertex  9.238795e+000 -1.538268e+002  6.000000e+001
    endloop
  endfacet
  facet normal -8.314707e-001  5.555685e-001  0.000000e+000
    outer loop
      vertex  7.071068e+000 -1.570711e+002  2.000000e+001
      vertex  9.238795e+000 -1.538268e+002  6.000000e+001
      vertex  9.238795e+000 -1.538268e+002  2.000000e+001
    endloop
  endfacet
  facet normal -9.807853e-001  1.950907e-001  0.000000e+000
    outer loop
      vertex  9.238795e+000 -1.538268e+002  2.000000e+001
      vertex  9.238795e+000 -1.538268e+002  6.000000e+001
      vertex  1.000000e+001 -1.500000e+002  6.000000e+001
    endloop
  endfacet
  facet normal -9.807853e-001  1.950907e-001  0.000000e+000
    outer loop
      vertex  9.238795e+000 -1.538268e+002  2.000000e+001
      vertex  1.000000e+001 -1.500000e+002  6.000000e+001
      vertex  1.000000e+001 -1.500000e+002  2.000000e+001
    endloop
  endfacet
  facet normal  9.927089e-001  1.205368e-001  -0.000000e+000
    outer loop
      vertex  6.000000e+001 -1.000000e+002  6.000000e+001
      vertex  6.000000e+001 -1.000000e+002  4.000000e+001
      vertex  5.927354e+001 -9.401711e+001  6.000000e+001
    endloop
  endfacet
  facet normal  9.927089e-001  1.205368e-001  0.000000e+000
    outer loop
      vertex  5.927354e+001 -9.401711e+001  6.000000e+001
      vertex  6.000000e+001 -1.000000e+002  4.000000e+001
      vertex  5.927354e+001 -9.401711e+001  4.000000e+001
    endloop
  endfacet
  facet normal  9.350163e-001  3.546046e-001  -0.000000e+000
    outer loop
      vertex  5.927354e+001 -9.401711e+001  6.000000e+001
      vertex  5.927354e+001 -9.401711e+001  4.000000e+001
      vertex  5.713640e+001 -8.838192e+001  6.000000e+001
    endloop
  endfacet
  facet normal  9.350163e-001  3.546046e-001  0.000000e+000
    outer loop
      vertex  5.713640e+001 -8.838192e+001  6.000000e+001
      vertex  5.927354e+001 -9.401711e+001  4.000000e+001
      vertex  5.713640e+001 -8.838192e+001  4.000000e+001
    endloop
  endfacet
  facet normal  8.229836e-001  5.680652e-001  -0.000000e+000
    outer loop
      vertex  5.713640e+001 -8.838192e+001  6.000000e+001
      vertex  5.713640e+001 -8.838192e+001  4.000000e+001
      vertex  5.371277e+001 -8.342194e+001  6.000000e+001
    endloop
  endfacet
  facet normal  8.229836e-001  5.680652e-001  0.000000e+000
    outer loop
      vertex  5.371277e+001 -8.342194e+001  6.000000e+001
      vertex  5.713640e+001 -8.838192e+001  4.000000e+001
      vertex  5.371277e+001 -8.342194e+001  4.000000e+001
    endloop
  endfacet
  facet normal  6.631233e-001  7.485103e-001  -0.000000e+000
    outer loop
      vertex  5.371277e+001 -8.342194e+001  6.000000e+001
      vertex  5.371277e+001 -8.342194e+001  4.000000e+001
      vertex  4.920162e+001 -7.942540e+001  6.000000e+001
    endloop
  endfacet
  facet normal  6.631233e-001  7.485103e-001  0.000000e+000
    outer loop
      vertex  4.920162e+001 -7.942540e+001  6.000000e+001
      vertex  5.371277e+001 -8.342194e+001  4.000000e+001
      vertex  4.920162e+001 -7.942540e+001  4.000000e+001
    endloop
  endfacet
  facet normal  4.647227e-001  8.854564e-001  -0.000000e+000
    outer loop
      vertex  4.920162e+001 -7.942540e+001  6.000000e+001
      vertex  4.920162e+001 -7.942540e+001  4.000000e+001
      vertex  4.386512e+001 -7.662460e+001  6.000000e+001
    endloop
  endfacet
  facet normal  4.647227e-001  8.854564e-001  0.000000e+000
    outer loop
      vertex  4.386512e+001 -7.662460e+001  6.000000e+001
      vertex  4.920162e+001 -7.942540e+001  4.000000e+001
      vertex  4.386512e+001 -7.662460e+001  4.000000e+001
    endloop
  endfacet
  facet normal  2.393153e-001  9.709419e-001  -0.000000e+000
    outer loop
      vertex  4.386512e+001 -7.662460e+001  6.000000e+001
      vertex  4.386512e+001 -7.662460e+001  4.000000e+001
      vertex  3.801342e+001 -7.518228e+001  6.000000e+001
    endloop
  endfacet
  facet normal  2.393153e-001  9.709419e-001  0.000000e+000
    outer loop
      vertex  3.801342e+001 -7.518228e+001  6.000000e+001
      vertex  4.386512e+001 -7.662460e+001  4.000000e+001
      vertex  3.801342e+001 -7.518228e+001  4.000000e+001
    endloop
  endfacet
  facet normal  0.000000e+000  1.000000e+000  -0.000000e+000
    outer loop
      vertex  3.801342e+001 -7.518228e+001  6.000000e+001
      vertex  3.801342e+001 -7.518228e+001  4.000000e+001
      vertex  3.198658e+001 -7.518228e+001  6.000000e+001
    endloop
  endfacet
  facet normal  0.000000e+000  1.000000e+000  0.000000e+000
    outer loop
      vertex  3.198658e+001 -7.518228e+001  6.000000e+001
      vertex  3.801342e+001 -7.518228e+001  4.000000e+001
      vertex  3.198658e+001 -7.518228e+001  4.000000e+001
    endloop
  endfacet
  facet normal -2.393154e-001  9.709419e-001  0.000000e+000
    outer loop
      vertex  3.198658e+001 -7.518228e+001  6.000000e+001
      vertex  3.198658e+001 -7.518228e+001  4.000000e+001
      vertex  2.613488e+001 -7.662460e+001  6.000000e+001
    endloop
  endfacet
  facet normal -2.393154e-001  9.709419e-001  0.000000e+000
    outer loop
      vertex  2.613488e+001 -7.662460e+001  6.000000e+001
      vertex  3.198658e+001 -7.518228e+001  4.000000e+001
      vertex  2.613488e+001 -7.662460e+001  4.000000e+001
    endloop
  endfacet
  facet normal -4.647225e-001  8.854564e-001  0.000000e+000
    outer loop
      vertex  2.613488e+001 -7.662460e+001  6.000000e+001
      vertex  2.613488e+001 -7.662460e+001  4.000000e+001
      vertex  2.079838e+001 -7.942540e+001  6.000000e+001
    endloop
  endfacet
  facet normal -4.647225e-001  8.854564e-001  0.000000e+000
    outer loop
      vertex  2.079838e+001 -7.942540e+001  6.000000e+001
      vertex  2.613488e+001 -7.662460e+001  4.000000e+001
      vertex  2.079838e+001 -7.942540e+001  4.000000e+001
    endloop
  endfacet
  facet normal -6.631233e-001  7.485103e-001  0.000000e+000
    outer loop
      vertex  2.079838e+001 -7.942540e+001  6.000000e+001
      vertex  2.079838e+001 -7.942540e+001  4.000000e+001
      vertex  1.628723e+001 -8.342194e+001  6.000000e+001
    endloop
  endfacet
  facet normal -6.631233e-001  7.485103e-001  0.000000e+000
    outer loop
      vertex  1.628723e+001 -8.342194e+001  6.000000e+001
      vertex  2.079838e+001 -7.942540e+001  4.000000e+001
      vertex  1.628723e+001 -8.342194e+001  4.000000e+001
    endloop
  endfacet
  facet normal -8.229837e-001  5.680650e-001  0.000000e+000
    outer loop
      vertex  1.628723e+001 -8.342194e+001  6.000000e+001
      vertex  1.628723e+001 -8.342194e+001  4.000000e+001
      vertex  1.286360e+001 -8.838192e+001  6.000000e+001
    endloop
  endfacet
  facet normal -8.229837e-001  5.680650e-001  0.000000e+000
    outer loop
      vertex  1.286360e+001 -8.838192e+001  6.000000e+001
      vertex  1.628723e+001 -8.342194e+001  4.000000e+001
      vertex  1.286360e+001 -8.838192e+001  4.000000e+001
    endloop
  endfacet
  facet normal -9.350162e-001  3.546050e-001  0.000000e+000
    outer loop
      vertex  1.286360e+001 -8.838192e+001  6.000000e+001
      vertex  1.286360e+001 -8.838192e+001  4.000000e+001
      vertex  1.072645e+001 -9.401711e+001  6.000000e+001
    endloop
  endfacet
  facet normal -9.350162e-001  3.546050e-001  0.000000e+000
    outer loop
      vertex  1.072645e+001 -9.401711e+001  6.000000e+001
      vertex  1.286360e+001 -8.838192e+001  4.000000e+001
      vertex  1.072645e+001 -9.401711e+001  4.000000e+001
    endloop
  endfacet
  facet normal -9.927089e-001  1.205366e-001  0.000000e+000
    outer loop
      vertex  1.072645e+001 -9.401711e+001  6.000000e+001
      vertex  1.072645e+001 -9.401711e+001  4.000000e+001
      vertex  1.000000e+001 -1.000000e+002  6.000000e+001
    endloop
  endfacet
  facet normal -9.927089e-001  1.205366e-001  0.000000e+000
    outer loop
      vertex  1.000000e+001 -1.000000e+002  6.000000e+001
      vertex  1.072645e+001 -9.401711e+001  4.000000e+001
      vertex  1.000000e+001 -1.000000e+002  4.000000e+001
    endloop
  endfacet
  facet normal -1.000000e+000  0.000000e+000  0.000000e+000
    outer loop
      vertex  1.000000e+001 -1.290000e+002  4.000000e+001
      vertex  1.000000e+001 -1.295942e+002  4.260330e+001
      vertex  1.000000e+001 -1.200000e+002  4.000000e+001
    endloop
  endfacet
  facet normal -9.999999e-001  0.000000e+000  0.000000e+000
    outer loop
      vertex  1.000000e+001 -1.200000e+002  2.000000e+001
      vertex  1.000000e+001 -1.500000e+002  2.000000e+001
      vertex  1.000000e+001 -1.363351e+002  3.415043e+001
    endloop
  endfacet
  facet normal -1.000000e+000  0.000000e+000  0.000000e+000
    outer loop
      vertex  1.000000e+001 -1.200000e+002  2.000000e+001
      vertex  1.000000e+001 -1.363351e+002  3.415043e+001
      vertex  1.000000e+001 -1.336649e+002  3.415043e+001
    endloop
  endfacet
  facet normal -1.000000e+000  0.000000e+000  0.000000e+000
    outer loop
      vertex  1.000000e+001 -1.200000e+002  2.000000e+001
      vertex  1.000000e+001 -1.336649e+002  3.415043e+001
      vertex  1.000000e+001 -1.312591e+002  3.530901e+001
    endloop
  endfacet
  facet normal -1.000000e+000  0.000000e+000  0.000000e+000
    outer loop
      vertex  1.000000e+001 -1.200000e+002  2.000000e+001
      vertex  1.000000e+001 -1.312591e+002  3.530901e+001
      vertex  1.000000e+001 -1.295942e+002  3.739670e+001
    endloop
  endfacet
  facet normal -1.000000e+000  0.000000e+000  0.000000e+000
    outer loop
      vertex  1.000000e+001 -1.200000e+002  2.000000e+001
      vertex  1.000000e+001 -1.295942e+002  3.739670e+001
      vertex  1.000000e+001 -1.290000e+002  4.000000e+001
    endloop
  endfacet
  facet normal -1.000000e+000  0.000000e+000  0.000000e+000
    outer loop
      vertex  1.000000e+001 -1.200000e+002  2.000000e+001
      vertex  1.000000e+001 -1.290000e+002  4.000000e+001
      vertex  1.000000e+001 -1.200000e+002  4.000000e+001
    endloop
  endfacet
  facet normal -1.000000e+000  0.000000e+000  0.000000e+000
    outer loop
      vertex  1.000000e+001 -1.000000e+002  4.000000e+001
      vertex  1.000000e+001 -1.200000e+002  4.000000e+001
      vertex  1.000000e+001 -1.295942e+002  4.260330e+001
    endloop
  endfacet
  facet normal -1.000000e+000  0.000000e+000  0.000000e+000
    outer loop
      vertex  1.000000e+001 -1.000000e+002  4.000000e+001
      vertex  1.000000e+001 -1.295942e+002  4.260330e+001
      vertex  1.000000e+001 -1.312591e+002  4.469099e+001
    endloop
  endfacet
  facet normal -1.000000e+000  0.000000e+000  0.000000e+000
    outer loop
      vertex  1.000000e+001 -1.000000e+002  4.000000e+001
      vertex  1.000000e+001 -1.312591e+002  4.469099e+001
      vertex  1.000000e+001 -1.336649e+002  4.584957e+001
    endloop
  endfacet
  facet normal -1.000000e+000  0.000000e+000  0.000000e+000
    outer loop
      vertex  1.000000e+001 -1.000000e+002  4.000000e+001
      vertex  1.000000e+001 -1.336649e+002  4.584957e+001
      vertex  1.000000e+001 -1.000000e+002  6.000000e+001
    endloop
  endfacet
  facet normal -1.000000e+000  0.000000e+000  0.000000e+000
    outer loop
      vertex  1.000000e+001 -1.500000e+002  2.000000e+001
      vertex  1.000000e+001 -1.404058e+002  4.260330e+001
      vertex  1.000000e+001 -1.410000e+002  4.000000e+001
    endloop
  endfacet
  facet normal -1.000000e+000  0.000000e+000  -0.000000e+000
    outer loop
      vertex  1.000000e+001 -1.500000e+002  2.000000e+001
      vertex  1.000000e+001 -1.410000e+002  4.000000e+001
      vertex  1.000000e+001 -1.404058e+002  3.739670e+001
    endloop
  endfacet
  facet normal -1.000000e+000  0.000000e+000  -0.000000e+000
    outer loop
      vertex  1.000000e+001 -1.500000e+002  2.000000e+001
      vertex  1.000000e+001 -1.404058e+002  3.739670e+001
      vertex  1.000000e+001 -1.387409e+002  3.530901e+001
    endloop
  endfacet
  facet normal -1.000000e+000  0.000000e+000  -0.000000e+000
    outer loop
      vertex  1.000000e+001 -1.500000e+002  2.000000e+001
      vertex  1.000000e+001 -1.387409e+002  3.530901e+001
      vertex  1.000000e+001 -1.363351e+002  3.415043e+001
    endloop
  endfacet
  facet normal -1.000000e+000  -0.000000e+000  0.000000e+000
    outer loop
      vertex  1.000000e+001 -1.500000e+002  6.000000e+001
      vertex  1.000000e+001 -1.000000e+002  6.000000e+001
      vertex  1.000000e+001 -1.336649e+002  4.584957e+001
    endloop
  endfacet
  facet normal -1.000000e+000  0.000000e+000  0.000000e+000
    outer loop
      vertex  1.000000e+001 -1.500000e+002  6.000000e+001
      vertex  1.000000e+001 -1.336649e+002  4.584957e+001
      vertex  1.000000e+001 -1.363351e+002  4.584957e+001
    endloop
  endfacet
  facet normal -1.000000e+000  -0.000000e+000  0.000000e+000
    outer loop
      vertex  1.000000e+001 -1.500000e+002  6.000000e+001
      vertex  1.000000e+001 -1.363351e+002  4.584957e+001
      vertex  1.000000e+001 -1.387409e+002  4.469099e+001
    endloop
  endfacet
  facet normal -1.000000e+000  -0.000000e+000  0.000000e+000
    outer loop
      vertex  1.000000e+001 -1.500000e+002  6.000000e+001
      vertex  1.000000e+001 -1.387409e+002  4.469099e+001
      vertex  1.000000e+001 -1.404058e+002  4.260330e+001
    endloop
  endfacet
  facet normal -1.000000e+000  -0.000000e+000  0.000000e+000
    outer loop
      vertex  1.000000e+001 -1.500000e+002  6.000000e+001
      vertex  1.000000e+001 -1.404058e+002  4.260330e+001
      vertex  1.000000e+001 -1.500000e+002  2.000000e+001
    endloop
  endfacet
  facet normal  0.000000e+000 -4.338841e-001  9.009687e-001
    outer loop
      vertex  1.000000e+001 -1.336649e+002  3.415043e+001
      vertex  6.000000e+001 -1.312591e+002  3.530901e+001
      vertex  1.000000e+001 -1.312591e+002  3.530901e+001
    endloop
  endfacet
  facet normal  0.000000e+000 -7.818323e-001  6.234887e-001
    outer loop
      vertex  1.000000e+001 -1.312591e+002  3.530901e+001
      vertex  6.000000e+001 -1.312591e+002  3.530901e+001
      vertex  6.000000e+001 -1.295942e+002  3.739670e+001
    endloop
  endfacet
  facet normal  0.000000e+000 -7.818323e-001  6.234887e-001
    outer loop
      vertex  1.000000e+001 -1.312591e+002  3.530901e+001
      vertex  6.000000e+001 -1.295942e+002  3.739670e+001
      vertex  1.000000e+001 -1.295942e+002  3.739670e+001
    endloop
  endfacet
  facet normal  0.000000e+000 -9.749274e-001  2.225230e-001
    outer loop
      vertex  1.000000e+001 -1.295942e+002  3.739670e+001
      vertex  6.000000e+001 -1.295942e+002  3.739670e+001
      vertex  6.000000e+001 -1.290000e+002  4.000000e+001
    endloop
  endfacet
  facet normal  0.000000e+000 -9.749274e-001  2.225230e-001
    outer loop
      vertex  1.000000e+001 -1.295942e+002  3.739670e+001
      vertex  6.000000e+001 -1.290000e+002  4.000000e+001
      vertex  1.000000e+001 -1.290000e+002  4.000000e+001
    endloop
  endfacet
  facet normal  0.000000e+000 -4.338841e-001  9.009687e-001
    outer loop
      vertex  6.000000e+001 -1.312591e+002  3.530901e+001
      vertex  1.000000e+001 -1.336649e+002  3.415043e+001
      vertex  6.000000e+001 -1.336649e+002  3.415043e+001
    endloop
  endfacet
  facet normal  0.000000e+000  0.000000e+000  1.000000e+000
    outer loop
      vertex  6.000000e+001 -1.336649e+002  3.415043e+001
      vertex  1.000000e+001 -1.336649e+002  3.415043e+001
      vertex  1.000000e+001 -1.363351e+002  3.415043e+001
    endloop
  endfacet
  facet normal  0.000000e+000  0.000000e+000  1.000000e+000
    outer loop
      vertex  6.000000e+001 -1.336649e+002  3.415043e+001
      vertex  1.000000e+001 -1.363351e+002  3.415043e+001
      vertex  6.000000e+001 -1.363351e+002  3.415043e+001
    endloop
  endfacet
  facet normal  0.000000e+000  4.338841e-001  9.009687e-001
    outer loop
      vertex  6.000000e+001 -1.363351e+002  3.415043e+001
      vertex  1.000000e+001 -1.363351e+002  3.415043e+001
      vertex  1.000000e+001 -1.387409e+002  3.530901e+001
    endloop
  endfacet
  facet normal  -0.000000e+000  4.338841e-001  9.009687e-001
    outer loop
      vertex  6.000000e+001 -1.363351e+002  3.415043e+001
      vertex  1.000000e+001 -1.387409e+002  3.530901e+001
      vertex  6.000000e+001 -1.387409e+002  3.530901e+001
    endloop
  endfacet
  facet normal  0.000000e+000  7.818323e-001  6.234887e-001
    outer loop
      vertex  6.000000e+001 -1.387409e+002  3.530901e+001
      vertex  1.000000e+001 -1.387409e+002  3.530901e+001
      vertex  1.000000e+001 -1.404058e+002  3.739670e+001
    endloop
  endfacet
  facet normal  -0.000000e+000  7.818323e-001  6.234887e-001
    outer loop
      vertex  6.000000e+001 -1.387409e+002  3.530901e+001
      vertex  1.000000e+001 -1.404058e+002  3.739670e+001
      vertex  6.000000e+001 -1.404058e+002  3.739670e+001
    endloop
  endfacet
  facet normal  0.000000e+000  9.749274e-001  2.225230e-001
    outer loop
      vertex  6.000000e+001 -1.404058e+002  3.739670e+001
      vertex  1.000000e+001 -1.404058e+002  3.739670e+001
      vertex  1.000000e+001 -1.410000e+002  4.000000e+001
    endloop
  endfacet
  facet normal  -0.000000e+000  9.749274e-001  2.225230e-001
    outer loop
      vertex  6.000000e+001 -1.404058e+002  3.739670e+001
      vertex  1.000000e+001 -1.410000e+002  4.000000e+001
      vertex  6.000000e+001 -1.410000e+002  4.000000e+001
    endloop
  endfacet
  facet normal  0.000000e+000  4.338841e-001 -9.009687e-001
    outer loop
      vertex  1.000000e+001 -1.363351e+002  4.584957e+001
      vertex  6.000000e+001 -1.387409e+002  4.469099e+001
      vertex  1.000000e+001 -1.387409e+002  4.469099e+001
    endloop
  endfacet
  facet normal  0.000000e+000  7.818323e-001 -6.234887e-001
    outer loop
      vertex  1.000000e+001 -1.387409e+002  4.469099e+001
      vertex  6.000000e+001 -1.387409e+002  4.469099e+001
      vertex  6.000000e+001 -1.404058e+002  4.260330e+001
    endloop
  endfacet
  facet normal  0.000000e+000  7.818323e-001 -6.234887e-001
    outer loop
      vertex  1.000000e+001 -1.387409e+002  4.469099e+001
      vertex  6.000000e+001 -1.404058e+002  4.260330e+001
      vertex  1.000000e+001 -1.404058e+002  4.260330e+001
    endloop
  endfacet
  facet normal  0.000000e+000  9.749274e-001 -2.225230e-001
    outer loop
      vertex  1.000000e+001 -1.404058e+002  4.260330e+001
      vertex  6.000000e+001 -1.404058e+002  4.260330e+001
      vertex  6.000000e+001 -1.410000e+002  4.000000e+001
    endloop
  endfacet
  facet normal  0.000000e+000  9.749274e-001 -2.225230e-001
    outer loop
      vertex  1.000000e+001 -1.404058e+002  4.260330e+001
      vertex  6.000000e+001 -1.410000e+002  4.000000e+001
      vertex  1.000000e+001 -1.410000e+002  4.000000e+001
    endloop
  endfacet
  facet normal  0.000000e+000  4.338841e-001 -9.009687e-001
    outer loop
      vertex  6.000000e+001 -1.387409e+002  4.469099e+001
      vertex  1.000000e+001 -1.363351e+002  4.584957e+001
      vertex  6.000000e+001 -1.363351e+002  4.584957e+001
    endloop
  endfacet
  facet normal  0.000000e+000  0.000000e+000 -1.000000e+000
    outer loop
      vertex  6.000000e+001 -1.363351e+002  4.584957e+001
      vertex  1.000000e+001 -1.363351e+002  4.584957e+001
      vertex  1.000000e+001 -1.336649e+002  4.584957e+001
    endloop
  endfacet
  facet normal  0.000000e+000  0.000000e+000 -1.000000e+000
    outer loop
      vertex  6.000000e+001 -1.363351e+002  4.584957e+001
      vertex  1.000000e+001 -1.336649e+002  4.584957e+001
      vertex  6.000000e+001 -1.336649e+002  4.584957e+001
    endloop
  endfacet
  facet normal  -0.000000e+000 -4.338841e-001 -9.009687e-001
    outer loop
      vertex  6.000000e+001 -1.336649e+002  4.584957e+001
      vertex  1.000000e+001 -1.336649e+002  4.584957e+001
      vertex  1.000000e+001 -1.312591e+002  4.469099e+001
    endloop
  endfacet
  facet normal  0.000000e+000 -4.338841e-001 -9.009687e-001
    outer loop
      vertex  6.000000e+001 -1.336649e+002  4.584957e+001
      vertex  1.000000e+001 -1.312591e+002  4.469099e+001
      vertex  6.000000e+001 -1.312591e+002  4.469099e+001
    endloop
  endfacet
  facet normal  -0.000000e+000 -7.818323e-001 -6.234887e-001
    outer loop
      vertex  6.000000e+001 -1.312591e+002  4.469099e+001
      vertex  1.000000e+001 -1.312591e+002  4.469099e+001
      vertex  1.000000e+001 -1.295942e+002  4.260330e+001
    endloop
  endfacet
  facet normal  0.000000e+000 -7.818323e-001 -6.234887e-001
    outer loop
      vertex  6.000000e+001 -1.312591e+002  4.469099e+001
      vertex  1.000000e+001 -1.295942e+002  4.260330e+001
      vertex  6.000000e+001 -1.295942e+002  4.260330e+001
    endloop
  endfacet
  facet normal  -0.000000e+000 -9.749274e-001 -2.225230e-001
    outer loop
      vertex  6.000000e+001 -1.295942e+002  4.260330e+001
      vertex  1.000000e+001 -1.295942e+002  4.260330e+001
      vertex  1.000000e+001 -1.290000e+002  4.000000e+001
    endloop
  endfacet
  facet normal  0.000000e+000 -9.749274e-001 -2.225230e-001
    outer loop
      vertex  6.000000e+001 -1.295942e+002  4.260330e+001
      vertex  1.000000e+001 -1.290000e+002  4.000000e+001
      vertex  6.000000e+001 -1.290000e+002  4.000000e+001
    endloop
  endfacet
  facet normal -1.000000e+000  0.000000e+000  0.000000e+000
    outer loop
      vertex  0.000000e+000 -2.000000e+002  2.424264e+001
      vertex  0.000000e+000 -1.854058e+002  4.260330e+001
      vertex  0.000000e+000 -1.860000e+002  4.000000e+001
    endloop
  endfacet
  facet normal -1.000000e+000  0.000000e+000  -0.000000e+000
    outer loop
      vertex  0.000000e+000 -2.000000e+002  2.424264e+001
      vertex  0.000000e+000 -1.860000e+002  4.000000e+001
      vertex  0.000000e+000 -1.854058e+002  3.739670e+001
    endloop
  endfacet
  facet normal -1.000000e+000  0.000000e+000  -0.000000e+000
    outer loop
      vertex  0.000000e+000 -2.000000e+002  2.424264e+001
      vertex  0.000000e+000 -1.854058e+002  3.739670e+001
      vertex  0.000000e+000 -1.837409e+002  3.530901e+001
    endloop
  endfacet
  facet normal -1.000000e+000  0.000000e+000  -0.000000e+000
    outer loop
      vertex  0.000000e+000 -2.000000e+002  2.424264e+001
      vertex  0.000000e+000 -1.837409e+002  3.530901e+001
      vertex  0.000000e+000 -1.813351e+002  3.415043e+001
    endloop
  endfacet
  facet normal -1.000000e+000  0.000000e+000  0.000000e+000
    outer loop
      vertex  0.000000e+000 -2.000000e+002  2.424264e+001
      vertex  0.000000e+000 -1.813351e+002  3.415043e+001
      vertex  0.000000e+000 -1.957574e+002  2.000000e+001
    endloop
  endfacet
  facet normal -1.000000e+000  0.000000e+000  -0.000000e+000
    outer loop
      vertex  0.000000e+000 -2.000000e+002  5.575736e+001
      vertex  0.000000e+000 -1.957574e+002  6.000000e+001
      vertex  0.000000e+000 -1.813351e+002  4.584957e+001
    endloop
  endfacet
  facet normal -1.000000e+000  -0.000000e+000  0.000000e+000
    outer loop
      vertex  0.000000e+000 -2.000000e+002  5.575736e+001
      vertex  0.000000e+000 -1.813351e+002  4.584957e+001
      vertex  0.000000e+000 -1.837409e+002  4.469099e+001
    endloop
  endfacet
  facet normal -1.000000e+000  -0.000000e+000  0.000000e+000
    outer loop
      vertex  0.000000e+000 -2.000000e+002  5.575736e+001
      vertex  0.000000e+000 -1.837409e+002  4.469099e+001
      vertex  0.000000e+000 -1.854058e+002  4.260330e+001
    endloop
  endfacet
  facet normal -1.000000e+000  -0.000000e+000  0.000000e+000
    outer loop
      vertex  0.000000e+000 -2.000000e+002  5.575736e+001
      vertex  0.000000e+000 -1.854058e+002  4.260330e+001
      vertex  0.000000e+000 -2.000000e+002  2.424264e+001
    endloop
  endfacet
  facet normal -1.000000e+000  9.164096e-017 -9.340115e-017
    outer loop
      vertex  3.276838e-015 -1.600000e+002  2.000000e+001
      vertex  0.000000e+000 -1.957574e+002  2.000000e+001
      vertex  0.000000e+000 -1.813351e+002  3.415043e+001
    endloop
  endfacet
  facet normal -1.000000e+000  0.000000e+000 -2.315716e-016
    outer loop
      vertex  3.276838e-015 -1.600000e+002  2.000000e+001
      vertex  0.000000e+000 -1.813351e+002  3.415043e+001
      vertex  0.000000e+000 -1.786649e+002  3.415043e+001
    endloop
  endfacet
  facet normal -1.000000e+000  6.819853e-017 -1.416156e-016
    outer loop
      vertex  3.276838e-015 -1.600000e+002  2.000000e+001
      vertex  0.000000e+000 -1.786649e+002  3.415043e+001
      vertex  0.000000e+000 -1.762591e+002  3.530901e+001
    endloop
  endfacet
  facet normal -9.999999e-001  1.151078e-016 -9.179516e-017
    outer loop
      vertex  3.276838e-015 -1.600000e+002  2.000000e+001
      vertex  0.000000e+000 -1.762591e+002  3.530901e+001
      vertex  0.000000e+000 -1.745942e+002  3.739670e+001
    endloop
  endfacet
  facet normal -1.000000e+000  1.765071e-016 -4.028698e-017
    outer loop
      vertex  3.276838e-015 -1.600000e+002  2.000000e+001
      vertex  0.000000e+000 -1.745942e+002  3.739670e+001
      vertex  0.000000e+000 -1.740000e+002  4.000000e+001
    endloop
  endfacet
  facet normal -1.000000e+000  3.473035e-016  7.927054e-017
    outer loop
      vertex  3.276838e-015 -1.600000e+002  2.000000e+001
      vertex  0.000000e+000 -1.740000e+002  4.000000e+001
      vertex  0.000000e+000 -1.745942e+002  4.260330e+001
    endloop
  endfacet
  facet normal -1.000000e+000  2.245303e-016  0.000000e+000
    outer loop
      vertex  3.276838e-015 -1.600000e+002  6.000000e+001
      vertex  3.276838e-015 -1.600000e+002  2.000000e+001
      vertex  0.000000e+000 -1.745942e+002  4.260330e+001
    endloop
  endfacet
  facet normal -9.999999e-001  1.151078e-016  9.179516e-017
    outer loop
      vertex  3.276838e-015 -1.600000e+002  6.000000e+001
      vertex  0.000000e+000 -1.745942e+002  4.260330e+001
      vertex  0.000000e+000 -1.762591e+002  4.469099e+001
    endloop
  endfacet
  facet normal -1.000000e+000  6.819853e-017  1.416156e-016
    outer loop
      vertex  3.276838e-015 -1.600000e+002  6.000000e+001
      vertex  0.000000e+000 -1.762591e+002  4.469099e+001
      vertex  0.000000e+000 -1.786649e+002  4.584957e+001
    endloop
  endfacet
  facet normal -1.000000e+000  0.000000e+000  2.315716e-016
    outer loop
      vertex  3.276838e-015 -1.600000e+002  6.000000e+001
      vertex  0.000000e+000 -1.786649e+002  4.584957e+001
      vertex  0.000000e+000 -1.813351e+002  4.584957e+001
    endloop
  endfacet
  facet normal -1.000000e+000  9.164096e-017  9.340115e-017
    outer loop
      vertex  3.276838e-015 -1.600000e+002  6.000000e+001
      vertex  0.000000e+000 -1.813351e+002  4.584957e+001
      vertex  0.000000e+000 -1.957574e+002  6.000000e+001
    endloop
  endfacet
  facet normal  0.000000e+000  1.000000e+000  0.000000e+000
    outer loop
      vertex  6.000000e+001 -1.200000e+002  2.000000e+001
      vertex  1.000000e+001 -1.200000e+002  2.000000e+001
      vertex  6.000000e+001 -1.200000e+002  4.000000e+001
    endloop
  endfacet
  facet normal  0.000000e+000  1.000000e+000  0.000000e+000
    outer loop
      vertex  6.000000e+001 -1.200000e+002  4.000000e+001
      vertex  1.000000e+001 -1.200000e+002  2.000000e+001
      vertex  1.000000e+001 -1.200000e+002  4.000000e+001
    endloop
  endfacet
  facet normal  0.000000e+000  0.000000e+000  1.000000e+000
    outer loop
      vertex  1.000000e+001 -1.500000e+002  6.000000e+001
      vertex  9.238795e+000 -1.538268e+002  6.000000e+001
      vertex  3.366488e+001 -1.058496e+002  6.000000e+001
    endloop
  endfacet
  facet normal  0.000000e+000  0.000000e+000  1.000000e+000
    outer loop
      vertex  1.000000e+001 -1.500000e+002  6.000000e+001
      vertex  3.366488e+001 -1.058496e+002  6.000000e+001
      vertex  3.125906e+001 -1.046910e+002  6.000000e+001
    endloop
  endfacet
  facet normal  0.000000e+000  0.000000e+000  1.000000e+000
    outer loop
      vertex  1.000000e+001 -1.500000e+002  6.000000e+001
      vertex  3.125906e+001 -1.046910e+002  6.000000e+001
      vertex  2.959419e+001 -1.026033e+002  6.000000e+001
    endloop
  endfacet
  facet normal  0.000000e+000  0.000000e+000  1.000000e+000
    outer loop
      vertex  1.000000e+001 -1.500000e+002  6.000000e+001
      vertex  2.959419e+001 -1.026033e+002  6.000000e+001
      vertex  2.900000e+001 -1.000000e+002  6.000000e+001
    endloop
  endfacet
  facet normal  0.000000e+000  0.000000e+000  9.999999e-001
    outer loop
      vertex  1.000000e+001 -1.500000e+002  6.000000e+001
      vertex  2.900000e+001 -1.000000e+002  6.000000e+001
      vertex  1.000000e+001 -1.000000e+002  6.000000e+001
    endloop
  endfacet
  facet normal  0.000000e+000  -0.000000e+000  1.000000e+000
    outer loop
      vertex  0.000000e+000 -1.957574e+002  6.000000e+001
      vertex  4.000000e+001 -1.957574e+002  6.000000e+001
      vertex  4.000000e+001 -1.715470e+002  6.000000e+001
    endloop
  endfacet
  facet normal  0.000000e+000  0.000000e+000  1.000000e+000
    outer loop
      vertex  0.000000e+000 -1.957574e+002  6.000000e+001
      vertex  4.000000e+001 -1.715470e+002  6.000000e+001
      vertex  3.633512e+001 -1.058496e+002  6.000000e+001
    endloop
  endfacet
  facet normal  0.000000e+000  0.000000e+000  1.000000e+000
    outer loop
      vertex  0.000000e+000 -1.957574e+002  6.000000e+001
      vertex  3.633512e+001 -1.058496e+002  6.000000e+001
      vertex  3.366488e+001 -1.058496e+002  6.000000e+001
    endloop
  endfacet
  facet normal  0.000000e+000  0.000000e+000  1.000000e+000
    outer loop
      vertex  0.000000e+000 -1.957574e+002  6.000000e+001
      vertex  3.366488e+001 -1.058496e+002  6.000000e+001
      vertex  9.238795e+000 -1.538268e+002  6.000000e+001
    endloop
  endfacet
  facet normal  0.000000e+000  0.000000e+000  1.000000e+000
    outer loop
      vertex  0.000000e+000 -1.957574e+002  6.000000e+001
      vertex  9.238795e+000 -1.538268e+002  6.000000e+001
      vertex  7.071068e+000 -1.570711e+002  6.000000e+001
    endloop
  endfacet
  facet normal  0.000000e+000  0.000000e+000  1.000000e+000
    outer loop
      vertex  0.000000e+000 -1.957574e+002  6.000000e+001
      vertex  7.071068e+000 -1.570711e+002  6.000000e+001
      vertex  3.826834e+000 -1.592388e+002  6.000000e+001
    endloop
  endfacet
  facet normal  0.000000e+000  0.000000e+000  1.000000e+000
    outer loop
      vertex  0.000000e+000 -1.957574e+002  6.000000e+001
      vertex  3.826834e+000 -1.592388e+002  6.000000e+001
      vertex  3.276838e-015 -1.600000e+002  6.000000e+001
    endloop
  endfacet
  facet normal  0.000000e+000  0.000000e+000  1.000000e+000
    outer loop
      vertex  6.000000e+001 -1.000000e+002  6.000000e+001
      vertex  5.927354e+001 -9.401711e+001  6.000000e+001
      vertex  3.633512e+001 -9.415043e+001  6.000000e+001
    endloop
  endfacet
  facet normal  0.000000e+000  0.000000e+000  1.000000e+000
    outer loop
      vertex  6.000000e+001 -1.000000e+002  6.000000e+001
      vertex  3.633512e+001 -9.415043e+001  6.000000e+001
      vertex  3.874094e+001 -9.530901e+001  6.000000e+001
    endloop
  endfacet
  facet normal  0.000000e+000  0.000000e+000  1.000000e+000
    outer loop
      vertex  6.000000e+001 -1.000000e+002  6.000000e+001
      vertex  3.874094e+001 -9.530901e+001  6.000000e+001
      vertex  4.040581e+001 -9.739670e+001  6.000000e+001
    endloop
  endfacet
  facet normal  0.000000e+000  0.000000e+000  1.000000e+000
    outer loop
      vertex  6.000000e+001 -1.000000e+002  6.000000e+001
      vertex  4.040581e+001 -9.739670e+001  6.000000e+001
      vertex  4.100000e+001 -1.000000e+002  6.000000e+001
    endloop
  endfacet
  facet normal  0.000000e+000  0.000000e+000  1.000000e+000
    outer loop
      vertex  1.072645e+001 -9.401711e+001  6.000000e+001
      vertex  1.000000e+001 -1.000000e+002  6.000000e+001
      vertex  3.366488e+001 -9.415043e+001  6.000000e+001
    endloop
  endfacet
  facet normal  0.000000e+000  0.000000e+000  1.000000e+000
    outer loop
      vertex  1.072645e+001 -9.401711e+001  6.000000e+001
      vertex  3.366488e+001 -9.415043e+001  6.000000e+001
      vertex  3.198658e+001 -7.518228e+001  6.000000e+001
    endloop
  endfacet
  facet normal  0.000000e+000  0.000000e+000  1.000000e+000
    outer loop
      vertex  1.072645e+001 -9.401711e+001  6.000000e+001
      vertex  3.198658e+001 -7.518228e+001  6.000000e+001
      vertex  2.613488e+001 -7.662460e+001  6.000000e+001
    endloop
  endfacet
  facet normal  0.000000e+000  0.000000e+000  1.000000e+000
    outer loop
      vertex  1.072645e+001 -9.401711e+001  6.000000e+001
      vertex  2.613488e+001 -7.662460e+001  6.000000e+001
      vertex  2.079838e+001 -7.942540e+001  6.000000e+001
    endloop
  endfacet
  facet normal  0.000000e+000  0.000000e+000  9.999999e-001
    outer loop
      vertex  1.072645e+001 -9.401711e+001  6.000000e+001
      vertex  2.079838e+001 -7.942540e+001  6.000000e+001
      vertex  1.628723e+001 -8.342194e+001  6.000000e+001
    endloop
  endfacet
  facet normal  0.000000e+000  0.000000e+000  1.000000e+000
    outer loop
      vertex  1.072645e+001 -9.401711e+001  6.000000e+001
      vertex  1.628723e+001 -8.342194e+001  6.000000e+001
      vertex  1.286360e+001 -8.838192e+001  6.000000e+001
    endloop
  endfacet
  facet normal  0.000000e+000  0.000000e+000  1.000000e+000
    outer loop
      vertex  3.633512e+001 -9.415043e+001  6.000000e+001
      vertex  5.927354e+001 -9.401711e+001  6.000000e+001
      vertex  5.713640e+001 -8.838192e+001  6.000000e+001
    endloop
  endfacet
  facet normal  0.000000e+000  0.000000e+000  9.999999e-001
    outer loop
      vertex  3.633512e+001 -9.415043e+001  6.000000e+001
      vertex  5.713640e+001 -8.838192e+001  6.000000e+001
      vertex  5.371277e+001 -8.342194e+001  6.000000e+001
    endloop
  endfacet
  facet normal  0.000000e+000  0.000000e+000  1.000000e+000
    outer loop
      vertex  3.633512e+001 -9.415043e+001  6.000000e+001
      vertex  5.371277e+001 -8.342194e+001  6.000000e+001
      vertex  4.920162e+001 -7.942540e+001  6.000000e+001
    endloop
  endfacet
  facet normal  0.000000e+000  0.000000e+000  1.000000e+000
    outer loop
      vertex  3.633512e+001 -9.415043e+001  6.000000e+001
      vertex  4.920162e+001 -7.942540e+001  6.000000e+001
      vertex  4.386512e+001 -7.662460e+001  6.000000e+001
    endloop
  endfacet
  facet normal  0.000000e+000  0.000000e+000  1.000000e+000
    outer loop
      vertex  3.633512e+001 -9.415043e+001  6.000000e+001
      vertex  4.386512e+001 -7.662460e+001  6.000000e+001
      vertex  3.801342e+001 -7.518228e+001  6.000000e+001
    endloop
  endfacet
  facet normal  0.000000e+000  0.000000e+000  1.000000e+000
    outer loop
      vertex  3.633512e+001 -9.415043e+001  6.000000e+001
      vertex  3.801342e+001 -7.518228e+001  6.000000e+001
      vertex  3.198658e+001 -7.518228e+001  6.000000e+001
    endloop
  endfacet
  facet normal  0.000000e+000  0.000000e+000  9.999999e-001
    outer loop
      vertex  3.633512e+001 -9.415043e+001  6.000000e+001
      vertex  3.198658e+001 -7.518228e+001  6.000000e+001
      vertex  3.366488e+001 -9.415043e+001  6.000000e+001
    endloop
  endfacet
  facet normal  0.000000e+000  -0.000000e+000  1.000000e+000
    outer loop
      vertex  1.000000e+001 -1.000000e+002  6.000000e+001
      vertex  2.900000e+001 -1.000000e+002  6.000000e+001
      vertex  2.959419e+001 -9.739670e+001  6.000000e+001
    endloop
  endfacet
  facet normal  0.000000e+000  -0.000000e+000  1.000000e+000
    outer loop
      vertex  1.000000e+001 -1.000000e+002  6.000000e+001
      vertex  2.959419e+001 -9.739670e+001  6.000000e+001
      vertex  3.125906e+001 -9.530901e+001  6.000000e+001
    endloop
  endfacet
  facet normal  0.000000e+000  -0.000000e+000  1.000000e+000
    outer loop
      vertex  1.000000e+001 -1.000000e+002  6.000000e+001
      vertex  3.125906e+001 -9.530901e+001  6.000000e+001
      vertex  3.366488e+001 -9.415043e+001  6.000000e+001
    endloop
  endfacet
  facet normal  0.000000e+000  0.000000e+000  1.000000e+000
    outer loop
      vertex  6.000000e+001 -1.600000e+002  6.000000e+001
      vertex  6.000000e+001 -1.000000e+002  6.000000e+001
      vertex  4.100000e+001 -1.000000e+002  6.000000e+001
    endloop
  endfacet
  facet normal  0.000000e+000  0.000000e+000  1.000000e+000
    outer loop
      vertex  6.000000e+001 -1.600000e+002  6.000000e+001
      vertex  4.100000e+001 -1.000000e+002  6.000000e+001
      vertex  4.040581e+001 -1.026033e+002  6.000000e+001
    endloop
  endfacet
  facet normal  0.000000e+000  0.000000e+000  1.000000e+000
    outer loop
      vertex  6.000000e+001 -1.600000e+002  6.000000e+001
      vertex  4.040581e+001 -1.026033e+002  6.000000e+001
      vertex  3.874094e+001 -1.046910e+002  6.000000e+001
    endloop
  endfacet
  facet normal  0.000000e+000  0.000000e+000  9.999999e-001
    outer loop
      vertex  6.000000e+001 -1.600000e+002  6.000000e+001
      vertex  3.874094e+001 -1.046910e+002  6.000000e+001
      vertex  3.633512e+001 -1.058496e+002  6.000000e+001
    endloop
  endfacet
  facet normal  0.000000e+000  0.000000e+000  1.000000e+000
    outer loop
      vertex  6.000000e+001 -1.600000e+002  6.000000e+001
      vertex  3.633512e+001 -1.058496e+002  6.000000e+001
      vertex  4.000000e+001 -1.715470e+002  6.000000e+001
    endloop
  endfacet
  facet normal  0.000000e+000  0.000000e+000 -1.000000e+000
    outer loop
      vertex  6.000000e+001 -1.600000e+002  2.000000e+001
      vertex  4.000000e+001 -1.715470e+002  2.000000e+001
      vertex  3.276838e-015 -1.600000e+002  2.000000e+001
    endloop
  endfacet
  facet normal  0.000000e+000  0.000000e+000 -1.000000e+000
    outer loop
      vertex  6.000000e+001 -1.600000e+002  2.000000e+001
      vertex  3.276838e-015 -1.600000e+002  2.000000e+001
      vertex  3.826834e+000 -1.592388e+002  2.000000e+001
    endloop
  endfacet
  facet normal  0.000000e+000  0.000000e+000 -1.000000e+000
    outer loop
      vertex  6.000000e+001 -1.600000e+002  2.000000e+001
      vertex  3.826834e+000 -1.592388e+002  2.000000e+001
      vertex  7.071068e+000 -1.570711e+002  2.000000e+001
    endloop
  endfacet
  facet normal  0.000000e+000  0.000000e+000 -1.000000e+000
    outer loop
      vertex  6.000000e+001 -1.600000e+002  2.000000e+001
      vertex  7.071068e+000 -1.570711e+002  2.000000e+001
      vertex  9.238795e+000 -1.538268e+002  2.000000e+001
    endloop
  endfacet
  facet normal  0.000000e+000  0.000000e+000 -1.000000e+000
    outer loop
      vertex  6.000000e+001 -1.600000e+002  2.000000e+001
      vertex  9.238795e+000 -1.538268e+002  2.000000e+001
      vertex  1.000000e+001 -1.500000e+002  2.000000e+001
    endloop
  endfacet
  facet normal  0.000000e+000  0.000000e+000 -1.000000e+000
    outer loop
      vertex  6.000000e+001 -1.600000e+002  2.000000e+001
      vertex  1.000000e+001 -1.500000e+002  2.000000e+001
      vertex  1.000000e+001 -1.200000e+002  2.000000e+001
    endloop
  endfacet
  facet normal  0.000000e+000  0.000000e+000 -1.000000e+000
    outer loop
      vertex  6.000000e+001 -1.600000e+002  2.000000e+001
      vertex  1.000000e+001 -1.200000e+002  2.000000e+001
      vertex  6.000000e+001 -1.200000e+002  2.000000e+001
    endloop
  endfacet
  facet normal  0.000000e+000  0.000000e+000 -1.000000e+000
    outer loop
      vertex  4.000000e+001 -1.715470e+002  2.000000e+001
      vertex  4.000000e+001 -1.957574e+002  2.000000e+001
      vertex  3.276838e-015 -1.600000e+002  2.000000e+001
    endloop
  endfacet
  facet normal  0.000000e+000  -0.000000e+000 -9.999999e-001
    outer loop
      vertex  3.276838e-015 -1.600000e+002  2.000000e+001
      vertex  4.000000e+001 -1.957574e+002  2.000000e+001
      vertex  0.000000e+000 -1.957574e+002  2.000000e+001
    endloop
  endfacet
  facet normal  0.000000e+000  0.000000e+000 -9.999999e-001
    outer loop
      vertex  3.198658e+001 -7.518228e+001  4.000000e+001
      vertex  3.633512e+001 -9.415043e+001  4.000000e+001
      vertex  3.366488e+001 -9.415043e+001  4.000000e+001
    endloop
  endfacet
  facet normal  0.000000e+000  0.000000e+000 -1.000000e+000
    outer loop
      vertex  3.366488e+001 -9.415043e+001  4.000000e+001
      vertex  3.125906e+001 -9.530901e+001  4.000000e+001
      vertex  3.198658e+001 -7.518228e+001  4.000000e+001
    endloop
  endfacet
  facet normal  0.000000e+000  0.000000e+000 -1.000000e+000
    outer loop
      vertex  6.000000e+001 -1.000000e+002  4.000000e+001
      vertex  6.000000e+001 -1.200000e+002  4.000000e+001
      vertex  3.633512e+001 -1.058496e+002  4.000000e+001
    endloop
  endfacet
  facet normal  0.000000e+000  0.000000e+000 -1.000000e+000
    outer loop
      vertex  6.000000e+001 -1.000000e+002  4.000000e+001
      vertex  3.633512e+001 -1.058496e+002  4.000000e+001
      vertex  3.874094e+001 -1.046910e+002  4.000000e+001
    endloop
  endfacet
  facet normal  0.000000e+000  0.000000e+000 -1.000000e+000
    outer loop
      vertex  6.000000e+001 -1.000000e+002  4.000000e+001
      vertex  3.874094e+001 -1.046910e+002  4.000000e+001
      vertex  4.040581e+001 -1.026033e+002  4.000000e+001
    endloop
  endfacet
  facet normal  0.000000e+000  0.000000e+000 -1.000000e+000
    outer loop
      vertex  6.000000e+001 -1.000000e+002  4.000000e+001
      vertex  4.040581e+001 -1.026033e+002  4.000000e+001
      vertex  4.100000e+001 -1.000000e+002  4.000000e+001
    endloop
  endfacet
  facet normal  0.000000e+000  0.000000e+000 -1.000000e+000
    outer loop
      vertex  1.000000e+001 -1.200000e+002  4.000000e+001
      vertex  1.000000e+001 -1.000000e+002  4.000000e+001
      vertex  2.900000e+001 -1.000000e+002  4.000000e+001
    endloop
  endfacet
  facet normal  0.000000e+000  -0.000000e+000 -1.000000e+000
    outer loop
      vertex  1.000000e+001 -1.200000e+002  4.000000e+001
      vertex  2.900000e+001 -1.000000e+002  4.000000e+001
      vertex  2.959419e+001 -1.026033e+002  4.000000e+001
    endloop
  endfacet
  facet normal  0.000000e+000  -0.000000e+000 -1.000000e+000
    outer loop
      vertex  1.000000e+001 -1.200000e+002  4.000000e+001
      vertex  2.959419e+001 -1.026033e+002  4.000000e+001
      vertex  3.125906e+001 -1.046910e+002  4.000000e+001
    endloop
  endfacet
  facet normal  0.000000e+000  -0.000000e+000 -1.000000e+000
    outer loop
      vertex  1.000000e+001 -1.200000e+002  4.000000e+001
      vertex  3.125906e+001 -1.046910e+002  4.000000e+001
      vertex  3.366488e+001 -1.058496e+002  4.000000e+001
    endloop
  endfacet
  facet normal  0.000000e+000  -0.000000e+000 -1.000000e+000
    outer loop
      vertex  1.000000e+001 -1.200000e+002  4.000000e+001
      vertex  3.366488e+001 -1.058496e+002  4.000000e+001
      vertex  3.633512e+001 -1.058496e+002  4.000000e+001
    endloop
  endfacet
  facet normal  0.000000e+000  -0.000000e+000 -1.000000e+000
    outer loop
      vertex  1.000000e+001 -1.200000e+002  4.000000e+001
      vertex  3.633512e+001 -1.058496e+002  4.000000e+001
      vertex  6.000000e+001 -1.200000e+002  4.000000e+001
    endloop
  endfacet
  facet normal  0.000000e+000  0.000000e+000 -1.000000e+000
    outer loop
      vertex  4.100000e+001 -1.000000e+002  4.000000e+001
      vertex  4.040581e+001 -9.739670e+001  4.000000e+001
      vertex  3.801342e+001 -7.518228e+001  4.000000e+001
    endloop
  endfacet
  facet normal  0.000000e+000  0.000000e+000 -1.000000e+000
    outer loop
      vertex  4.100000e+001 -1.000000e+002  4.000000e+001
      vertex  3.801342e+001 -7.518228e+001  4.000000e+001
      vertex  4.386512e+001 -7.662460e+001  4.000000e+001
    endloop
  endfacet
  facet normal  0.000000e+000  -0.000000e+000 -1.000000e+000
    outer loop
      vertex  4.100000e+001 -1.000000e+002  4.000000e+001
      vertex  4.386512e+001 -7.662460e+001  4.000000e+001
      vertex  4.920162e+001 -7.942540e+001  4.000000e+001
    endloop
  endfacet
  facet normal  0.000000e+000  -0.000000e+000 -1.000000e+000
    outer loop
      vertex  4.100000e+001 -1.000000e+002  4.000000e+001
      vertex  4.920162e+001 -7.942540e+001  4.000000e+001
      vertex  5.371277e+001 -8.342194e+001  4.000000e+001
    endloop
  endfacet
  facet normal  0.000000e+000  -0.000000e+000 -9.999999e-001
    outer loop
      vertex  4.100000e+001 -1.000000e+002  4.000000e+001
      vertex  5.371277e+001 -8.342194e+001  4.000000e+001
      vertex  5.713640e+001 -8.838192e+001  4.000000e+001
    endloop
  endfacet
  facet normal  0.000000e+000  -0.000000e+000 -1.000000e+000
    outer loop
      vertex  4.100000e+001 -1.000000e+002  4.000000e+001
      vertex  5.713640e+001 -8.838192e+001  4.000000e+001
      vertex  5.927354e+001 -9.401711e+001  4.000000e+001
    endloop
  endfacet
  facet normal  0.000000e+000  -0.000000e+000 -1.000000e+000
    outer loop
      vertex  4.100000e+001 -1.000000e+002  4.000000e+001
      vertex  5.927354e+001 -9.401711e+001  4.000000e+001
      vertex  6.000000e+001 -1.000000e+002  4.000000e+001
    endloop
  endfacet
  facet normal  0.000000e+000  -0.000000e+000 -1.000000e+000
    outer loop
      vertex  1.000000e+001 -1.000000e+002  4.000000e+001
      vertex  1.072645e+001 -9.401711e+001  4.000000e+001
      vertex  1.286360e+001 -8.838192e+001  4.000000e+001
    endloop
  endfacet
  facet normal  0.000000e+000  -0.000000e+000 -9.999999e-001
    outer loop
      vertex  1.000000e+001 -1.000000e+002  4.000000e+001
      vertex  1.286360e+001 -8.838192e+001  4.000000e+001
      vertex  1.628723e+001 -8.342194e+001  4.000000e+001
    endloop
  endfacet
  facet normal  0.000000e+000  -0.000000e+000 -1.000000e+000
    outer loop
      vertex  1.000000e+001 -1.000000e+002  4.000000e+001
      vertex  1.628723e+001 -8.342194e+001  4.000000e+001
      vertex  2.079838e+001 -7.942540e+001  4.000000e+001
    endloop
  endfacet
  facet normal  0.000000e+000  -0.000000e+000 -1.000000e+000
    outer loop
      vertex  1.000000e+001 -1.000000e+002  4.000000e+001
      vertex  2.079838e+001 -7.942540e+001  4.000000e+001
      vertex  2.613488e+001 -7.662460e+001  4.000000e+001
    endloop
  endfacet
  facet normal  0.000000e+000  -0.000000e+000 -1.000000e+000
    outer loop
      vertex  1.000000e+001 -1.000000e+002  4.000000e+001
      vertex  2.613488e+001 -7.662460e+001  4.000000e+001
      vertex  2.900000e+001 -1.000000e+002  4.000000e+001
    endloop
  endfacet
  facet normal  0.000000e+000  0.000000e+000 -1.000000e+000
    outer loop
      vertex  3.633512e+001 -9.415043e+001  4.000000e+001
      vertex  3.198658e+001 -7.518228e+001  4.000000e+001
      vertex  3.874094e+001 -9.530901e+001  4.000000e+001
    endloop
  endfacet
  facet normal  0.000000e+000  0.000000e+000 -1.000000e+000
    outer loop
      vertex  3.874094e+001 -9.530901e+001  4.000000e+001
      vertex  3.198658e+001 -7.518228e+001  4.000000e+001
      vertex  3.801342e+001 -7.518228e+001  4.000000e+001
    endloop
  endfacet
  facet normal  0.000000e+000  0.000000e+000 -9.999999e-001
    outer loop
      vertex  3.874094e+001 -9.530901e+001  4.000000e+001
      vertex  3.801342e+001 -7.518228e+001  4.000000e+001
      vertex  4.040581e+001 -9.739670e+001  4.000000e+001
    endloop
  endfacet
  facet normal  0.000000e+000  0.000000e+000 -1.000000e+000
    outer loop
      vertex  3.198658e+001 -7.518228e+001  4.000000e+001
      vertex  3.125906e+001 -9.530901e+001  4.000000e+001
      vertex  2.613488e+001 -7.662460e+001  4.000000e+001
    endloop
  endfacet
  facet normal  0.000000e+000  0.000000e+000 -1.000000e+000
    outer loop
      vertex  2.613488e+001 -7.662460e+001  4.000000e+001
      vertex  3.125906e+001 -9.530901e+001  4.000000e+001
      vertex  2.959419e+001 -9.739670e+001  4.000000e+001
    endloop
  endfacet
  facet normal  -0.000000e+000  0.000000e+000 -1.000000e+000
    outer loop
      vertex  2.613488e+001 -7.662460e+001  4.000000e+001
      vertex  2.959419e+001 -9.739670e+001  4.000000e+001
      vertex  2.900000e+001 -1.000000e+002  4.000000e+001
    endloop
  endfacet
  facet normal  0.000000e+000 -7.071065e-001  7.071071e-001
    outer loop
      vertex  0.000000e+000 -2.000000e+002  5.575736e+001
      vertex  4.000000e+001 -2.000000e+002  5.575736e+001
      vertex  0.000000e+000 -1.957574e+002  6.000000e+001
    endloop
  endfacet
  facet normal  0.000000e+000 -7.071065e-001  7.071071e-001
    outer loop
      vertex  0.000000e+000 -1.957574e+002  6.000000e+001
      vertex  4.000000e+001 -2.000000e+002  5.575736e+001
      vertex  4.000000e+001 -1.957574e+002  6.000000e+001
    endloop
  endfacet
  facet normal  0.000000e+000 -1.000000e+000  0.000000e+000
    outer loop
      vertex  4.000000e+001 -2.000000e+002  5.575736e+001
      vertex  0.000000e+000 -2.000000e+002  5.575736e+001
      vertex  4.000000e+001 -2.000000e+002  2.424264e+001
    endloop
  endfacet
  facet normal  0.000000e+000 -1.000000e+000  0.000000e+000
    outer loop
      vertex  4.000000e+001 -2.000000e+002  2.424264e+001
      vertex  0.000000e+000 -2.000000e+002  5.575736e+001
      vertex  0.000000e+000 -2.000000e+002  2.424264e+001
    endloop
  endfacet
  facet normal  0.000000e+000 -7.071065e-001 -7.071071e-001
    outer loop
      vertex  0.000000e+000 -2.000000e+002  2.424264e+001
      vertex  0.000000e+000 -1.957574e+002  2.000000e+001
      vertex  4.000000e+001 -2.000000e+002  2.424264e+001
    endloop
  endfacet
  facet normal  0.000000e+000 -7.071065e-001 -7.071071e-001
    outer loop
      vertex  4.000000e+001 -2.000000e+002  2.424264e+001
      vertex  0.000000e+000 -1.957574e+002  2.000000e+001
      vertex  4.000000e+001 -1.957574e+002  2.000000e+001
    endloop
  endfacet
  facet normal  0.000000e+000 -4.338841e-001  9.009687e-001
    outer loop
      vertex  0.000000e+000 -1.786649e+002  3.415043e+001
      vertex  4.000000e+001 -1.762591e+002  3.530901e+001
      vertex  0.000000e+000 -1.762591e+002  3.530901e+001
    endloop
  endfacet
  facet normal  0.000000e+000 -7.818323e-001  6.234887e-001
    outer loop
      vertex  0.000000e+000 -1.762591e+002  3.530901e+001
      vertex  4.000000e+001 -1.762591e+002  3.530901e+001
      vertex  4.000000e+001 -1.745942e+002  3.739670e+001
    endloop
  endfacet
  facet normal  0.000000e+000 -7.818323e-001  6.234887e-001
    outer loop
      vertex  0.000000e+000 -1.762591e+002  3.530901e+001
      vertex  4.000000e+001 -1.745942e+002  3.739670e+001
      vertex  0.000000e+000 -1.745942e+002  3.739670e+001
    endloop
  endfacet
  facet normal  0.000000e+000 -9.749274e-001  2.225230e-001
    outer loop
      vertex  0.000000e+000 -1.745942e+002  3.739670e+001
      vertex  4.000000e+001 -1.745942e+002  3.739670e+001
      vertex  4.000000e+001 -1.740000e+002  4.000000e+001
    endloop
  endfacet
  facet normal  0.000000e+000 -9.749274e-001  2.225230e-001
    outer loop
      vertex  0.000000e+000 -1.745942e+002  3.739670e+001
      vertex  4.000000e+001 -1.740000e+002  4.000000e+001
      vertex  0.000000e+000 -1.740000e+002  4.000000e+001
    endloop
  endfacet
  facet normal  0.000000e+000 -4.338841e-001  9.009687e-001
    outer loop
      vertex  4.000000e+001 -1.762591e+002  3.530901e+001
      vertex  0.000000e+000 -1.786649e+002  3.415043e+001
      vertex  4.000000e+001 -1.786649e+002  3.415043e+001
    endloop
  endfacet
  facet normal  0.000000e+000  0.000000e+000  1.000000e+000
    outer loop
      vertex  4.000000e+001 -1.786649e+002  3.415043e+001
      vertex  0.000000e+000 -1.786649e+002  3.415043e+001
      vertex  0.000000e+000 -1.813351e+002  3.415043e+001
    endloop
  endfacet
  facet normal  0.000000e+000  0.000000e+000  1.000000e+000
    outer loop
      vertex  4.000000e+001 -1.786649e+002  3.415043e+001
      vertex  0.000000e+000 -1.813351e+002  3.415043e+001
      vertex  4.000000e+001 -1.813351e+002  3.415043e+001
    endloop
  endfacet
  facet normal  0.000000e+000  4.338841e-001  9.009687e-001
    outer loop
      vertex  4.000000e+001 -1.813351e+002  3.415043e+001
      vertex  0.000000e+000 -1.813351e+002  3.415043e+001
      vertex  0.000000e+000 -1.837409e+002  3.530901e+001
    endloop
  endfacet
  facet normal  -0.000000e+000  4.338841e-001  9.009687e-001
    outer loop
      vertex  4.000000e+001 -1.813351e+002  3.415043e+001
      vertex  0.000000e+000 -1.837409e+002  3.530901e+001
      vertex  4.000000e+001 -1.837409e+002  3.530901e+001
    endloop
  endfacet
  facet normal  0.000000e+000  7.818323e-001  6.234887e-001
    outer loop
      vertex  4.000000e+001 -1.837409e+002  3.530901e+001
      vertex  0.000000e+000 -1.837409e+002  3.530901e+001
      vertex  0.000000e+000 -1.854058e+002  3.739670e+001
    endloop
  endfacet
  facet normal  -0.000000e+000  7.818323e-001  6.234887e-001
    outer loop
      vertex  4.000000e+001 -1.837409e+002  3.530901e+001
      vertex  0.000000e+000 -1.854058e+002  3.739670e+001
      vertex  4.000000e+001 -1.854058e+002  3.739670e+001
    endloop
  endfacet
  facet normal  0.000000e+000  9.749274e-001  2.225230e-001
    outer loop
      vertex  4.000000e+001 -1.854058e+002  3.739670e+001
      vertex  0.000000e+000 -1.854058e+002  3.739670e+001
      vertex  0.000000e+000 -1.860000e+002  4.000000e+001
    endloop
  endfacet
  facet normal  -0.000000e+000  9.749274e-001  2.225230e-001
    outer loop
      vertex  4.000000e+001 -1.854058e+002  3.739670e+001
      vertex  0.000000e+000 -1.860000e+002  4.000000e+001
      vertex  4.000000e+001 -1.860000e+002  4.000000e+001
    endloop
  endfacet
  facet normal  0.000000e+000  4.338841e-001 -9.009687e-001
    outer loop
      vertex  0.000000e+000 -1.813351e+002  4.584957e+001
      vertex  4.000000e+001 -1.837409e+002  4.469099e+001
      vertex  0.000000e+000 -1.837409e+002  4.469099e+001
    endloop
  endfacet
  facet normal  0.000000e+000  7.818323e-001 -6.234887e-001
    outer loop
      vertex  0.000000e+000 -1.837409e+002  4.469099e+001
      vertex  4.000000e+001 -1.837409e+002  4.469099e+001
      vertex  4.000000e+001 -1.854058e+002  4.260330e+001
    endloop
  endfacet
  facet normal  0.000000e+000  7.818323e-001 -6.234887e-001
    outer loop
      vertex  0.000000e+000 -1.837409e+002  4.469099e+001
      vertex  4.000000e+001 -1.854058e+002  4.260330e+001
      vertex  0.000000e+000 -1.854058e+002  4.260330e+001
    endloop
  endfacet
  facet normal  0.000000e+000  9.749274e-001 -2.225230e-001
    outer loop
      vertex  0.000000e+000 -1.854058e+002  4.260330e+001
      vertex  4.000000e+001 -1.854058e+002  4.260330e+001
      vertex  4.000000e+001 -1.860000e+002  4.000000e+001
    endloop
  endfacet
  facet normal  0.000000e+000  9.749274e-001 -2.225230e-001
    outer loop
      vertex  0.000000e+000 -1.854058e+002  4.260330e+001
      vertex  4.000000e+001 -1.860000e+002  4.000000e+001
      vertex  0.000000e+000 -1.860000e+002  4.000000e+001
    endloop
  endfacet
  facet normal  0.000000e+000  4.338841e-001 -9.009687e-001
    outer loop
      vertex  4.000000e+001 -1.837409e+002  4.469099e+001
      vertex  0.000000e+000 -1.813351e+002  4.584957e+001
      vertex  4.000000e+001 -1.813351e+002  4.584957e+001
    endloop
  endfacet
  facet normal  0.000000e+000  0.000000e+000 -1.000000e+000
    outer loop
      vertex  4.000000e+001 -1.813351e+002  4.584957e+001
      vertex  0.000000e+000 -1.813351e+002  4.584957e+001
      vertex  0.000000e+000 -1.786649e+002  4.584957e+001
    endloop
  endfacet
  facet normal  0.000000e+000  0.000000e+000 -1.000000e+000
    outer loop
      vertex  4.000000e+001 -1.813351e+002  4.584957e+001
      vertex  0.000000e+000 -1.786649e+002  4.584957e+001
      vertex  4.000000e+001 -1.786649e+002  4.584957e+001
    endloop
  endfacet
  facet normal  -0.000000e+000 -4.338841e-001 -9.009687e-001
    outer loop
      vertex  4.000000e+001 -1.786649e+002  4.584957e+001
      vertex  0.000000e+000 -1.786649e+002  4.584957e+001
      vertex  0.000000e+000 -1.762591e+002  4.469099e+001
    endloop
  endfacet
  facet normal  0.000000e+000 -4.338841e-001 -9.009687e-001
    outer loop
      vertex  4.000000e+001 -1.786649e+002  4.584957e+001
      vertex  0.000000e+000 -1.762591e+002  4.469099e+001
      vertex  4.000000e+001 -1.762591e+002  4.469099e+001
    endloop
  endfacet
  facet normal  -0.000000e+000 -7.818323e-001 -6.234887e-001
    outer loop
      vertex  4.000000e+001 -1.762591e+002  4.469099e+001
      vertex  0.000000e+000 -1.762591e+002  4.469099e+001
      vertex  0.000000e+000 -1.745942e+002  4.260330e+001
    endloop
  endfacet
  facet normal  0.000000e+000 -7.818323e-001 -6.234887e-001
    outer loop
      vertex  4.000000e+001 -1.762591e+002  4.469099e+001
      vertex  0.000000e+000 -1.745942e+002  4.260330e+001
      vertex  4.000000e+001 -1.745942e+002  4.260330e+001
    endloop
  endfacet
  facet normal  -0.000000e+000 -9.749274e-001 -2.225230e-001
    outer loop
      vertex  4.000000e+001 -1.745942e+002  4.260330e+001
      vertex  0.000000e+000 -1.745942e+002  4.260330e+001
      vertex  0.000000e+000 -1.740000e+002  4.000000e+001
    endloop
  endfacet
  facet normal  0.000000e+000 -9.749274e-001 -2.225230e-001
    outer loop
      vertex  4.000000e+001 -1.745942e+002  4.260330e+001
      vertex  0.000000e+000 -1.740000e+002  4.000000e+001
      vertex  4.000000e+001 -1.740000e+002  4.000000e+001
    endloop
  endfacet
  facet normal  1.000000e+000  0.000000e+000  0.000000e+000
    outer loop
      vertex  6.000000e+001 -1.600000e+002  6.000000e+001
      vertex  6.000000e+001 -1.600000e+002  2.000000e+001
      vertex  6.000000e+001 -1.387409e+002  4.469099e+001
    endloop
  endfacet
  facet normal  1.000000e+000  0.000000e+000  -0.000000e+000
    outer loop
      vertex  6.000000e+001 -1.600000e+002  6.000000e+001
      vertex  6.000000e+001 -1.387409e+002  4.469099e+001
      vertex  6.000000e+001 -1.363351e+002  4.584957e+001
    endloop
  endfacet
  facet normal  1.000000e+000  0.000000e+000  -0.000000e+000
    outer loop
      vertex  6.000000e+001 -1.600000e+002  6.000000e+001
      vertex  6.000000e+001 -1.363351e+002  4.584957e+001
      vertex  6.000000e+001 -1.336649e+002  4.584957e+001
    endloop
  endfacet
  facet normal  9.999999e-001  0.000000e+000  -0.000000e+000
    outer loop
      vertex  6.000000e+001 -1.600000e+002  6.000000e+001
      vertex  6.000000e+001 -1.336649e+002  4.584957e+001
      vertex  6.000000e+001 -1.000000e+002  6.000000e+001
    endloop
  endfacet
  facet normal  1.000000e+000  0.000000e+000  0.000000e+000
    outer loop
      vertex  6.000000e+001 -1.200000e+002  4.000000e+001
      vertex  6.000000e+001 -1.000000e+002  4.000000e+001
      vertex  6.000000e+001 -1.295942e+002  4.260330e+001
    endloop
  endfacet
  facet normal  1.000000e+000  0.000000e+000  0.000000e+000
    outer loop
      vertex  6.000000e+001 -1.200000e+002  4.000000e+001
      vertex  6.000000e+001 -1.295942e+002  4.260330e+001
      vertex  6.000000e+001 -1.290000e+002  4.000000e+001
    endloop
  endfacet
  facet normal  1.000000e+000  -0.000000e+000  0.000000e+000
    outer loop
      vertex  6.000000e+001 -1.200000e+002  4.000000e+001
      vertex  6.000000e+001 -1.290000e+002  4.000000e+001
      vertex  6.000000e+001 -1.295942e+002  3.739670e+001
    endloop
  endfacet
  facet normal  1.000000e+000  -0.000000e+000  0.000000e+000
    outer loop
      vertex  6.000000e+001 -1.200000e+002  4.000000e+001
      vertex  6.000000e+001 -1.295942e+002  3.739670e+001
      vertex  6.000000e+001 -1.200000e+002  2.000000e+001
    endloop
  endfacet
  facet normal  1.000000e+000  0.000000e+000  0.000000e+000
    outer loop
      vertex  6.000000e+001 -1.200000e+002  2.000000e+001
      vertex  6.000000e+001 -1.295942e+002  3.739670e+001
      vertex  6.000000e+001 -1.312591e+002  3.530901e+001
    endloop
  endfacet
  facet normal  1.000000e+000  0.000000e+000  0.000000e+000
    outer loop
      vertex  6.000000e+001 -1.200000e+002  2.000000e+001
      vertex  6.000000e+001 -1.312591e+002  3.530901e+001
      vertex  6.000000e+001 -1.336649e+002  3.415043e+001
    endloop
  endfacet
  facet normal  1.000000e+000  0.000000e+000  0.000000e+000
    outer loop
      vertex  6.000000e+001 -1.200000e+002  2.000000e+001
      vertex  6.000000e+001 -1.336649e+002  3.415043e+001
      vertex  6.000000e+001 -1.363351e+002  3.415043e+001
    endloop
  endfacet
  facet normal  1.000000e+000  0.000000e+000  0.000000e+000
    outer loop
      vertex  6.000000e+001 -1.200000e+002  2.000000e+001
      vertex  6.000000e+001 -1.363351e+002  3.415043e+001
      vertex  6.000000e+001 -1.600000e+002  2.000000e+001
    endloop
  endfacet
  facet normal  1.000000e+000  0.000000e+000  0.000000e+000
    outer loop
      vertex  6.000000e+001 -1.600000e+002  2.000000e+001
      vertex  6.000000e+001 -1.363351e+002  3.415043e+001
      vertex  6.000000e+001 -1.387409e+002  3.530901e+001
    endloop
  endfacet
  facet normal  1.000000e+000  0.000000e+000  0.000000e+000
    outer loop
      vertex  6.000000e+001 -1.600000e+002  2.000000e+001
      vertex  6.000000e+001 -1.387409e+002  3.530901e+001
      vertex  6.000000e+001 -1.404058e+002  3.739670e+001
    endloop
  endfacet
  facet normal  1.000000e+000  0.000000e+000  0.000000e+000
    outer loop
      vertex  6.000000e+001 -1.600000e+002  2.000000e+001
      vertex  6.000000e+001 -1.404058e+002  3.739670e+001
      vertex  6.000000e+001 -1.410000e+002  4.000000e+001
    endloop
  endfacet
  facet normal  9.999999e-001  0.000000e+000  -0.000000e+000
    outer loop
      vertex  6.000000e+001 -1.600000e+002  2.000000e+001
      vertex  6.000000e+001 -1.410000e+002  4.000000e+001
      vertex  6.000000e+001 -1.404058e+002  4.260330e+001
    endloop
  endfacet
  facet normal  1.000000e+000  0.000000e+000  -0.000000e+000
    outer loop
      vertex  6.000000e+001 -1.600000e+002  2.000000e+001
      vertex  6.000000e+001 -1.404058e+002  4.260330e+001
      vertex  6.000000e+001 -1.387409e+002  4.469099e+001
    endloop
  endfacet
  facet normal  1.000000e+000  -0.000000e+000  0.000000e+000
    outer loop
      vertex  6.000000e+001 -1.000000e+002  6.000000e+001
      vertex  6.000000e+001 -1.336649e+002  4.584957e+001
      vertex  6.000000e+001 -1.000000e+002  4.000000e+001
    endloop
  endfacet
  facet normal  1.000000e+000  0.000000e+000  0.000000e+000
    outer loop
      vertex  6.000000e+001 -1.000000e+002  4.000000e+001
      vertex  6.000000e+001 -1.336649e+002  4.584957e+001
      vertex  6.000000e+001 -1.312591e+002  4.469099e+001
    endloop
  endfacet
  facet normal  1.000000e+000  0.000000e+000  0.000000e+000
    outer loop
      vertex  6.000000e+001 -1.000000e+002  4.000000e+001
      vertex  6.000000e+001 -1.312591e+002  4.469099e+001
      vertex  6.000000e+001 -1.295942e+002  4.260330e+001
    endloop
  endfacet
  facet normal  1.000000e+000  0.000000e+000  -0.000000e+000
    outer loop
      vertex  4.000000e+001 -2.000000e+002  2.424264e+001
      vertex  4.000000e+001 -1.957574e+002  2.000000e+001
      vertex  4.000000e+001 -1.813351e+002  3.415043e+001
    endloop
  endfacet
  facet normal  1.000000e+000  0.000000e+000  0.000000e+000
    outer loop
      vertex  4.000000e+001 -2.000000e+002  2.424264e+001
      vertex  4.000000e+001 -1.813351e+002  3.415043e+001
      vertex  4.000000e+001 -1.837409e+002  3.530901e+001
    endloop
  endfacet
  facet normal  1.000000e+000  0.000000e+000  0.000000e+000
    outer loop
      vertex  4.000000e+001 -2.000000e+002  2.424264e+001
      vertex  4.000000e+001 -1.837409e+002  3.530901e+001
      vertex  4.000000e+001 -1.854058e+002  3.739670e+001
    endloop
  endfacet
  facet normal  1.000000e+000  0.000000e+000  0.000000e+000
    outer loop
      vertex  4.000000e+001 -2.000000e+002  2.424264e+001
      vertex  4.000000e+001 -1.854058e+002  3.739670e+001
      vertex  4.000000e+001 -1.860000e+002  4.000000e+001
    endloop
  endfacet
  facet normal  1.000000e+000  0.000000e+000  -0.000000e+000
    outer loop
      vertex  4.000000e+001 -2.000000e+002  2.424264e+001
      vertex  4.000000e+001 -1.860000e+002  4.000000e+001
      vertex  4.000000e+001 -1.854058e+002  4.260330e+001
    endloop
  endfacet
  facet normal  1.000000e+000  0.000000e+000  0.000000e+000
    outer loop
      vertex  4.000000e+001 -2.000000e+002  5.575736e+001
      vertex  4.000000e+001 -2.000000e+002  2.424264e+001
      vertex  4.000000e+001 -1.854058e+002  4.260330e+001
    endloop
  endfacet
  facet normal  1.000000e+000  0.000000e+000  -0.000000e+000
    outer loop
      vertex  4.000000e+001 -2.000000e+002  5.575736e+001
      vertex  4.000000e+001 -1.854058e+002  4.260330e+001
      vertex  4.000000e+001 -1.837409e+002  4.469099e+001
    endloop
  endfacet
  facet normal  1.000000e+000  0.000000e+000  -0.000000e+000
    outer loop
      vertex  4.000000e+001 -2.000000e+002  5.575736e+001
      vertex  4.000000e+001 -1.837409e+002  4.469099e+001
      vertex  4.000000e+001 -1.813351e+002  4.584957e+001
    endloop
  endfacet
  facet normal  1.000000e+000  0.000000e+000  0.000000e+000
    outer loop
      vertex  4.000000e+001 -2.000000e+002  5.575736e+001
      vertex  4.000000e+001 -1.813351e+002  4.584957e+001
      vertex  4.000000e+001 -1.957574e+002  6.000000e+001
    endloop
  endfacet
  facet normal  1.000000e+000  0.000000e+000  0.000000e+000
    outer loop
      vertex  4.000000e+001 -1.715470e+002  2.000000e+001
      vertex  4.000000e+001 -1.740000e+002  4.000000e+001
      vertex  4.000000e+001 -1.745942e+002  3.739670e+001
    endloop
  endfacet
  facet normal  1.000000e+000  0.000000e+000  0.000000e+000
    outer loop
      vertex  4.000000e+001 -1.715470e+002  2.000000e+001
      vertex  4.000000e+001 -1.745942e+002  3.739670e+001
      vertex  4.000000e+001 -1.762591e+002  3.530901e+001
    endloop
  endfacet
  facet normal  1.000000e+000  0.000000e+000  0.000000e+000
    outer loop
      vertex  4.000000e+001 -1.715470e+002  2.000000e+001
      vertex  4.000000e+001 -1.762591e+002  3.530901e+001
      vertex  4.000000e+001 -1.786649e+002  3.415043e+001
    endloop
  endfacet
  facet normal  1.000000e+000  0.000000e+000  0.000000e+000
    outer loop
      vertex  4.000000e+001 -1.715470e+002  2.000000e+001
      vertex  4.000000e+001 -1.786649e+002  3.415043e+001
      vertex  4.000000e+001 -1.813351e+002  3.415043e+001
    endloop
  endfacet
  facet normal  9.999999e-001  0.000000e+000  0.000000e+000
    outer loop
      vertex  4.000000e+001 -1.715470e+002  2.000000e+001
      vertex  4.000000e+001 -1.813351e+002  3.415043e+001
      vertex  4.000000e+001 -1.957574e+002  2.000000e+001
    endloop
  endfacet
  facet normal  9.999999e-001  -0.000000e+000  0.000000e+000
    outer loop
      vertex  4.000000e+001 -1.715470e+002  6.000000e+001
      vertex  4.000000e+001 -1.957574e+002  6.000000e+001
      vertex  4.000000e+001 -1.813351e+002  4.584957e+001
    endloop
  endfacet
  facet normal  1.000000e+000  0.000000e+000  0.000000e+000
    outer loop
      vertex  4.000000e+001 -1.715470e+002  6.000000e+001
      vertex  4.000000e+001 -1.813351e+002  4.584957e+001
      vertex  4.000000e+001 -1.786649e+002  4.584957e+001
    endloop
  endfacet
  facet normal  1.000000e+000  -0.000000e+000  0.000000e+000
    outer loop
      vertex  4.000000e+001 -1.715470e+002  6.000000e+001
      vertex  4.000000e+001 -1.786649e+002  4.584957e+001
      vertex  4.000000e+001 -1.762591e+002  4.469099e+001
    endloop
  endfacet
  facet normal  1.000000e+000  -0.000000e+000  0.000000e+000
    outer loop
      vertex  4.000000e+001 -1.715470e+002  6.000000e+001
      vertex  4.000000e+001 -1.762591e+002  4.469099e+001
      vertex  4.000000e+001 -1.745942e+002  4.260330e+001
    endloop
  endfacet
  facet normal  1.000000e+000  -0.000000e+000  0.000000e+000
    outer loop
      vertex  4.000000e+001 -1.715470e+002  6.000000e+001
      vertex  4.000000e+001 -1.745942e+002  4.260330e+001
      vertex  4.000000e+001 -1.740000e+002  4.000000e+001
    endloop
  endfacet
  facet normal  9.999999e-001  -0.000000e+000  0.000000e+000
    outer loop
      vertex  4.000000e+001 -1.715470e+002  6.000000e+001
      vertex  4.000000e+001 -1.740000e+002  4.000000e+001
      vertex  4.000000e+001 -1.715470e+002  2.000000e+001
    endloop
  endfacet
  facet normal  5.000002e-001 -8.660253e-001  0.000000e+000
    outer loop
      vertex  4.000000e+001 -1.715470e+002  2.000000e+001
      vertex  6.000000e+001 -1.600000e+002  2.000000e+001
      vertex  4.000000e+001 -1.715470e+002  6.000000e+001
    endloop
  endfacet
  facet normal  5.000002e-001 -8.660253e-001  0.000000e+000
    outer loop
      vertex  4.000000e+001 -1.715470e+002  6.000000e+001
      vertex  6.000000e+001 -1.600000e+002  2.000000e+001
      vertex  6.000000e+001 -1.600000e+002  6.000000e+001
    endloop
  endfacet
  facet normal  4.338855e-001  9.009679e-001  -0.000000e+000
    outer loop
      vertex  3.366488e+001 -1.058496e+002  6.000000e+001
      vertex  3.125906e+001 -1.046910e+002  4.000000e+001
      vertex  3.125906e+001 -1.046910e+002  6.000000e+001
    endloop
  endfacet
  facet normal  7.818311e-001  6.234903e-001  0.000000e+000
    outer loop
      vertex  3.125906e+001 -1.046910e+002  6.000000e+001
      vertex  3.125906e+001 -1.046910e+002  4.000000e+001
      vertex  2.959419e+001 -1.026033e+002  4.000000e+001
    endloop
  endfacet
  facet normal  7.818311e-001  6.234903e-001  -0.000000e+000
    outer loop
      vertex  3.125906e+001 -1.046910e+002  6.000000e+001
      vertex  2.959419e+001 -1.026033e+002  4.000000e+001
      vertex  2.959419e+001 -1.026033e+002  6.000000e+001
    endloop
  endfacet
  facet normal  9.749279e-001  2.225210e-001  0.000000e+000
    outer loop
      vertex  2.959419e+001 -1.026033e+002  6.000000e+001
      vertex  2.959419e+001 -1.026033e+002  4.000000e+001
      vertex  2.900000e+001 -1.000000e+002  4.000000e+001
    endloop
  endfacet
  facet normal  9.749279e-001  2.225210e-001  -0.000000e+000
    outer loop
      vertex  2.959419e+001 -1.026033e+002  6.000000e+001
      vertex  2.900000e+001 -1.000000e+002  4.000000e+001
      vertex  2.900000e+001 -1.000000e+002  6.000000e+001
    endloop
  endfacet
  facet normal  4.338855e-001  9.009679e-001  0.000000e+000
    outer loop
      vertex  3.125906e+001 -1.046910e+002  4.000000e+001
      vertex  3.366488e+001 -1.058496e+002  6.000000e+001
      vertex  3.366488e+001 -1.058496e+002  4.000000e+001
    endloop
  endfacet
  facet normal  0.000000e+000  9.999999e-001  0.000000e+000
    outer loop
      vertex  3.366488e+001 -1.058496e+002  4.000000e+001
      vertex  3.366488e+001 -1.058496e+002  6.000000e+001
      vertex  3.633512e+001 -1.058496e+002  6.000000e+001
    endloop
  endfacet
  facet normal  0.000000e+000  9.999999e-001  0.000000e+000
    outer loop
      vertex  3.366488e+001 -1.058496e+002  4.000000e+001
      vertex  3.633512e+001 -1.058496e+002  6.000000e+001
      vertex  3.633512e+001 -1.058496e+002  4.000000e+001
    endloop
  endfacet
  facet normal -4.338853e-001  9.009681e-001  0.000000e+000
    outer loop
      vertex  3.633512e+001 -1.058496e+002  4.000000e+001
      vertex  3.633512e+001 -1.058496e+002  6.000000e+001
      vertex  3.874094e+001 -1.046910e+002  6.000000e+001
    endloop
  endfacet
  facet normal -4.338853e-001  9.009681e-001  0.000000e+000
    outer loop
      vertex  3.633512e+001 -1.058496e+002  4.000000e+001
      vertex  3.874094e+001 -1.046910e+002  6.000000e+001
      vertex  3.874094e+001 -1.046910e+002  4.000000e+001
    endloop
  endfacet
  facet normal -7.818317e-001  6.234894e-001  0.000000e+000
    outer loop
      vertex  3.874094e+001 -1.046910e+002  4.000000e+001
      vertex  3.874094e+001 -1.046910e+002  6.000000e+001
      vertex  4.040581e+001 -1.026033e+002  6.000000e+001
    endloop
  endfacet
  facet normal -7.818317e-001  6.234894e-001  0.000000e+000
    outer loop
      vertex  3.874094e+001 -1.046910e+002  4.000000e+001
      vertex  4.040581e+001 -1.026033e+002  6.000000e+001
      vertex  4.040581e+001 -1.026033e+002  4.000000e+001
    endloop
  endfacet
  facet normal -9.749277e-001  2.225216e-001  0.000000e+000
    outer loop
      vertex  4.040581e+001 -1.026033e+002  4.000000e+001
      vertex  4.040581e+001 -1.026033e+002  6.000000e+001
      vertex  4.100000e+001 -1.000000e+002  6.000000e+001
    endloop
  endfacet
  facet normal -9.749277e-001  2.225216e-001  0.000000e+000
    outer loop
      vertex  4.040581e+001 -1.026033e+002  4.000000e+001
      vertex  4.100000e+001 -1.000000e+002  6.000000e+001
      vertex  4.100000e+001 -1.000000e+002  4.000000e+001
    endloop
  endfacet
  facet normal -4.338853e-001 -9.009681e-001  0.000000e+000
    outer loop
      vertex  3.633512e+001 -9.415043e+001  6.000000e+001
      vertex  3.874094e+001 -9.530901e+001  4.000000e+001
      vertex  3.874094e+001 -9.530901e+001  6.000000e+001
    endloop
  endfacet
  facet normal -7.818317e-001 -6.234894e-001  -0.000000e+000
    outer loop
      vertex  3.874094e+001 -9.530901e+001  6.000000e+001
      vertex  3.874094e+001 -9.530901e+001  4.000000e+001
      vertex  4.040581e+001 -9.739670e+001  4.000000e+001
    endloop
  endfacet
  facet normal -7.818317e-001 -6.234894e-001  0.000000e+000
    outer loop
      vertex  3.874094e+001 -9.530901e+001  6.000000e+001
      vertex  4.040581e+001 -9.739670e+001  4.000000e+001
      vertex  4.040581e+001 -9.739670e+001  6.000000e+001
    endloop
  endfacet
  facet normal -9.749277e-001 -2.225216e-001  -0.000000e+000
    outer loop
      vertex  4.040581e+001 -9.739670e+001  6.000000e+001
      vertex  4.040581e+001 -9.739670e+001  4.000000e+001
      vertex  4.100000e+001 -1.000000e+002  4.000000e+001
    endloop
  endfacet
  facet normal -9.749277e-001 -2.225216e-001  0.000000e+000
    outer loop
      vertex  4.040581e+001 -9.739670e+001  6.000000e+001
      vertex  4.100000e+001 -1.000000e+002  4.000000e+001
      vertex  4.100000e+001 -1.000000e+002  6.000000e+001
    endloop
  endfacet
  facet normal -4.338853e-001 -9.009681e-001  -0.000000e+000
    outer loop
      vertex  3.874094e+001 -9.530901e+001  4.000000e+001
      vertex  3.633512e+001 -9.415043e+001  6.000000e+001
      vertex  3.633512e+001 -9.415043e+001  4.000000e+001
    endloop
  endfacet
  facet normal  0.000000e+000 -9.999999e-001  0.000000e+000
    outer loop
      vertex  3.633512e+001 -9.415043e+001  4.000000e+001
      vertex  3.633512e+001 -9.415043e+001  6.000000e+001
      vertex  3.366488e+001 -9.415043e+001  6.000000e+001
    endloop
  endfacet
  facet normal  0.000000e+000 -9.999999e-001  0.000000e+000
    outer loop
      vertex  3.633512e+001 -9.415043e+001  4.000000e+001
      vertex  3.366488e+001 -9.415043e+001  6.000000e+001
      vertex  3.366488e+001 -9.415043e+001  4.000000e+001
    endloop
  endfacet
  facet normal  4.338855e-001 -9.009679e-001  0.000000e+000
    outer loop
      vertex  3.366488e+001 -9.415043e+001  4.000000e+001
      vertex  3.366488e+001 -9.415043e+001  6.000000e+001
      vertex  3.125906e+001 -9.530901e+001  6.000000e+001
    endloop
  endfacet
  facet normal  4.338855e-001 -9.009679e-001  0.000000e+000
    outer loop
      vertex  3.366488e+001 -9.415043e+001  4.000000e+001
      vertex  3.125906e+001 -9.530901e+001  6.000000e+001
      vertex  3.125906e+001 -9.530901e+001  4.000000e+001
    endloop
  endfacet
  facet normal  7.818311e-001 -6.234903e-001  0.000000e+000
    outer loop
      vertex  3.125906e+001 -9.530901e+001  4.000000e+001
      vertex  3.125906e+001 -9.530901e+001  6.000000e+001
      vertex  2.959419e+001 -9.739670e+001  6.000000e+001
    endloop
  endfacet
  facet normal  7.818311e-001 -6.234903e-001  0.000000e+000
    outer loop
      vertex  3.125906e+001 -9.530901e+001  4.000000e+001
      vertex  2.959419e+001 -9.739670e+001  6.000000e+001
      vertex  2.959419e+001 -9.739670e+001  4.000000e+001
    endloop
  endfacet
  facet normal  9.749279e-001 -2.225210e-001  0.000000e+000
    outer loop
      vertex  2.959419e+001 -9.739670e+001  4.000000e+001
      vertex  2.959419e+001 -9.739670e+001  6.000000e+001
      vertex  2.900000e+001 -1.000000e+002  6.000000e+001
    endloop
  endfacet
  facet normal  9.749279e-001 -2.225210e-001  0.000000e+000
    outer loop
      vertex  2.959419e+001 -9.739670e+001  4.000000e+001
      vertex  2.900000e+001 -1.000000e+002  6.000000e+001
      vertex  2.900000e+001 -1.000000e+002  4.000000e+001
    endloop
  endfacet
endsolid CATIA STL
